<?xml version="1.0" standalone="no"?>
<!DOCTYPE svg PUBLIC "-//W3C//DTD SVG 20010904//EN"
 "http://www.w3.org/TR/2001/REC-SVG-20010904/DTD/svg10.dtd">
<svg version="1.0" xmlns="http://www.w3.org/2000/svg"
 width="700.000000pt" height="700.000000pt" viewBox="0 0 700.000000 700.000000"
 preserveAspectRatio="xMidYMid meet">
<metadata>
Created by potrace 1.14, written by Peter Selinger 2001-2017
</metadata>
<g transform="translate(0.000000,700.000000) scale(0.100000,-0.100000)"
fill="#000000" stroke="none">
<path d="M3330 6875 c-344 -73 -591 -314 -687 -666 -16 -59 -17 -181 -20
-1571 l-4 -1507 -34 -21 c-110 -68 -279 -226 -380 -355 -158 -204 -257 -421
-317 -696 -19 -89 -22 -134 -22 -309 0 -226 13 -313 76 -509 102 -319 315
-612 598 -821 112 -82 317 -188 447 -229 445 -144 956 -88 1346 145 412 247
696 656 783 1129 26 140 26 430 0 570 -79 428 -331 824 -673 1057 l-63 43 0
149 0 148 23 -5 c98 -24 172 -31 312 -31 128 1 180 6 260 24 533 120 926 527
1021 1058 20 115 20 340 -1 457 -47 261 -174 503 -365 695 -191 192 -434 319
-700 366 -121 21 -336 21 -445 0 -44 -9 -85 -16 -91 -16 -8 0 -15 31 -19 83
-21 260 -131 474 -323 633 -76 63 -237 145 -332 169 -89 23 -305 29 -390 10z
m334 -225 c223 -57 403 -234 472 -465 17 -56 19 -154 24 -1605 4 -1271 7
-1549 18 -1565 8 -11 55 -47 105 -80 112 -72 309 -266 385 -377 176 -259 263
-562 249 -873 -17 -366 -166 -695 -430 -952 -200 -194 -424 -313 -705 -375
-140 -31 -424 -31 -564 0 -190 42 -373 120 -526 224 -110 75 -295 263 -370
376 -107 162 -180 338 -219 529 -27 134 -24 414 5 550 83 385 314 713 653 927
26 16 53 39 60 50 12 18 15 273 19 1566 6 1732 0 1584 81 1740 86 167 244 290
428 335 85 20 225 18 315 -5z m1221 -872 c233 -35 490 -177 642 -356 367 -433
356 -1055 -28 -1467 -212 -228 -542 -361 -849 -342 -87 6 -210 26 -252 42 -17
7 -18 66 -18 1050 l0 1043 72 17 c134 33 273 37 433 13z"/>
<path d="M3367 6420 c-110 -35 -204 -115 -256 -217 -53 -106 -51 -32 -51
-1744 l0 -1587 -77 -36 c-293 -139 -520 -396 -623 -704 -50 -150 -63 -247 -57
-422 4 -121 10 -176 30 -251 115 -438 434 -757 876 -877 88 -24 113 -26 291
-26 178 0 203 2 291 26 443 120 760 438 876 877 35 130 43 363 18 496 -73 392
-319 716 -672 884 l-73 35 -2 1610 -3 1611 -23 57 c-73 180 -230 289 -416 287
-40 0 -96 -8 -129 -19z m211 -205 c57 -24 110 -82 127 -139 9 -31 15 -92 15
-163 l0 -113 -221 0 -221 0 4 133 c3 109 8 139 25 172 56 106 170 152 271 110z"/>
<path d="M4592 6508 l3 -273 108 -3 107 -3 0 276 0 275 -110 0 -110 0 2 -272z"/>
<path d="M5902 6057 l-192 -192 78 -78 77 -77 193 193 192 192 -78 78 -77 77
-193 -193z"/>
<path d="M6232 4703 l3 -108 273 -3 272 -2 0 110 0 110 -275 0 -276 0 3 -107z"/>
<path d="M5782 3617 l-72 -72 193 -193 192 -192 75 75 75 75 -190 190 c-104
105 -192 190 -195 190 -3 0 -38 -33 -78 -73z"/>
</g>
</svg>
