<?xml version="1.0" standalone="no"?>
<!DOCTYPE svg PUBLIC "-//W3C//DTD SVG 20010904//EN"
 "http://www.w3.org/TR/2001/REC-SVG-20010904/DTD/svg10.dtd">
<svg version="1.0" xmlns="http://www.w3.org/2000/svg"
 width="700.000000pt" height="700.000000pt" viewBox="0 0 700.000000 700.000000"
 preserveAspectRatio="xMidYMid meet">
<metadata>
Created by potrace 1.14, written by Peter Selinger 2001-2017
</metadata>
<g transform="translate(0.000000,700.000000) scale(0.100000,-0.100000)"
fill="#000000" stroke="none">
<path d="M3463 6953 c-15 -21 -34 -44 -41 -52 -44 -46 -590 -788 -785 -1066
-75 -107 -454 -674 -503 -753 -21 -34 -74 -117 -116 -185 -77 -123 -95 -152
-250 -417 -183 -314 -395 -726 -483 -940 -14 -36 -32 -78 -40 -95 -55 -124
-159 -432 -180 -535 -2 -8 -9 -37 -15 -65 -29 -125 -41 -239 -41 -375 0 -80 3
-162 5 -182 11 -100 19 -164 21 -178 28 -152 41 -211 70 -311 116 -403 334
-770 635 -1069 298 -297 658 -511 1060 -629 57 -17 118 -34 135 -37 16 -3 49
-9 73 -15 229 -51 620 -60 867 -20 192 31 318 63 470 118 665 243 1198 754
1463 1404 31 74 80 210 86 239 2 8 12 44 21 80 21 80 21 80 45 220 71 416 28
749 -160 1235 -250 650 -780 1568 -1469 2548 -80 114 -150 216 -156 225 -5 9
-12 19 -15 22 -3 3 -48 64 -100 135 -100 139 -408 553 -425 571 -5 7 -36 46
-68 88 -32 42 -62 76 -67 76 -5 0 -22 -17 -37 -37z"/>
</g>
</svg>
